<svg version="1.1" id="Layer_1" xmlns="http://www.w3.org/2000/svg" xmlns:xlink="http://www.w3.org/1999/xlink" x="0px" y="0px" viewBox="0 0 100 100" style="transform-origin: 50px 50px 0px;" xml:space="preserve"><g style="transform-origin: 50px 50px 0px;"><g fill="rgb(0, 0, 0)" style="fill: rgb(0, 0, 0); transform-origin: 50px 50px 0px; transform: scale(0.6);"><g style="transform-origin: 50px 50px 0px;"><g fill="rgb(0, 0, 0)" style="fill: rgb(0, 0, 0);"><style type="text/css" class="ld ld-breath" style="transform-origin: 50px 50px 0px; animation-duration: 0.9s; animation-delay: -0.9s; animation-direction: normal;">.st0{fill:#000101;} .st1{fill:#1E1E1E;} .st2{fill:#FFFFFF;} .st3{fill:#1D1C1D;} .st4{fill:#FEFFFF;} .st5{fill:#030404;} .st6{fill:#0A0A09;}</style><g class="ld ld-breath" style="transform-origin: 50px 50px 0px; animation-duration: 0.9s; animation-delay: -0.818182s; animation-direction: normal;"><path class="st0" d="M50.037,18.66c-17.4,0-31.51,13-31.51,29.03c0,10.05,4.065,17.67,10.52,22.58h-0.015l0.78,10.14v0.015 c0,0.05,0,0.1,0.015,0.15v0.02c0.08,0.48,0.5,0.85,1,0.85c0.175,0,0.335-0.05,0.48-0.12l0.035-0.02l9.65-5.585 c2.85,0.66,5.89,1,9.035,1c17.4,0,31.51-13,31.51-29.035c0-16.03-14.115-29.03-31.515-29.03L50.037,18.66z M44.632,12.4 c1.75-0.22,3.535-0.35,5.35-0.35c1.265,0,2.5,0.065,3.73,0.175l0.19-2.05c-1.3-0.115-2.6-0.175-3.915-0.175 c-1.9,0-3.785,0.12-5.64,0.365l0.28,2.04L44.632,12.4z M57.287,12.715c3.05,0.55,5.95,1.45,8.7,2.65l0.84-1.89 c-0.44-0.19-0.875-0.375-1.325-0.55c-2.54-1-5.17-1.75-7.85-2.24L57.287,12.715z M87.852,47.9c-0.05,3.05-0.515,6.02-1.35,8.85 l1.965,0.585c0.89-3.015,1.39-6.18,1.44-9.44h-2.05L87.852,47.9z M32.482,16.05c2.7-1.3,5.59-2.33,8.62-3.01l-0.45-2.015 c-2.105,0.475-4.17,1.1-6.18,1.9c-0.985,0.39-1.95,0.815-2.89,1.27l0.9,1.85V16.05z M77.977,20.71 c-2.35-2.165-4.95-4.025-7.76-5.575l-1.035,1.8c2.7,1.485,5.2,3.275,7.41,5.32l1.385-1.54L77.977,20.71z M60.502,83.5 c3.15-0.8,6.15-1.965,8.95-3.435l-1.05-1.775c-2.62,1.375-5.435,2.46-8.4,3.225l0.5,1.99V83.5z M22.252,23.35 c2.1-2.125,4.49-4,7.1-5.585L28.267,16c-2.33,1.41-4.5,3.05-6.485,4.91c-0.34,0.315-0.67,0.64-1,0.965l1.465,1.47L22.252,23.35z M87.192,60.95l-1.9-0.79c-1.16,2.78-2.675,5.385-4.51,7.775l1.65,1.23c1.925-2.525,3.535-5.285,4.75-8.215L87.192,60.95z M79.082,24.775c2.02,2.25,3.74,4.75,5.115,7.425l1.85-0.915c-1.45-2.84-3.265-5.485-5.425-7.89l-1.55,1.375L79.082,24.775z M87.602,34.785l-1.9,0.815c1.05,2.76,1.74,5.675,2.015,8.7l2.05-0.2C89.477,40.91,88.752,37.79,87.602,34.785z M31.282,86.165 l-3.225,1.415l-1.11-3.42l-1.95,0.64l1.46,4.49c0.1,0.275,0.3,0.5,0.56,0.62c0.13,0.06,0.275,0.09,0.42,0.09 c0.14,0,0.28-0.03,0.41-0.09l4.275-1.87l-0.835-1.875H31.282z M44.027,82.185c-0.26-0.05-0.525-0.09-0.79-0.135l-1.55-0.26 c-0.2-0.03-0.4,0-0.575,0.075l-6.5,2.84l0.9,1.85l6.15-2.68c0.415,0.07,0.83,0.14,1.235,0.2c0.23,0.05,0.465,0.085,0.7,0.125 l0.425-2.015L44.027,82.185z M56.452,82.25c-2.11,0.35-4.27,0.525-6.475,0.525c-0.91,0-1.75-0.05-2.575-0.125l-0.06,2.05 c0.835,0.08,1.7,0.13,2.635,0.13c2.33,0,4.61-0.19,6.83-0.55l-0.35-2.025L56.452,82.25z M15.052,33.72 c1.235-2.75,2.84-5.325,4.75-7.67l-1.565-1.36c-2.035,2.485-3.715,5.19-5.025,8.09l-0.035,0.07L15.052,33.72z M78.437,70.7 c-2.04,2.17-4.36,4.1-6.9,5.76l1.13,1.715c2.685-1.75,5.14-3.8,7.3-6.1L78.437,70.7z M13.232,58.5c-0.63-2.65-0.98-5.585-1.08-8.9 h-2.05c0.1,3.57,0.48,6.685,1.15,9.475L13.232,58.5z M11.792,36.415c-0.99,3.035-1.56,6.175-1.7,9.375l2.05,0.1 c0.14-3.075,0.7-6.05,1.625-8.87l-1.975-0.6V36.415z M25.787,80.615l-1.965-6.05c-0.065-0.2-0.185-0.365-0.35-0.49 c-0.775-0.61-1.5-1.225-2.2-1.86l-1.41,1.49c0.65,0.61,1.36,1.21,2.1,1.8l1.865,5.725l1.96-0.61V80.615z M18.772,69.64 c-1.97-2.3-3.46-4.83-4.52-7.715l-1.91,0.76c0.135,0.36,0.275,0.72,0.42,1.075c1.1,2.65,2.57,5.03,4.475,7.25L18.772,69.64z" fill="#09bcbc" style="fill: rgb(9, 188, 188);"></path></g><metadata xmlns:d="https://loading.io/stock/" class="ld ld-breath" style="transform-origin: 50px 50px 0px; animation-duration: 0.9s; animation-delay: -0.736364s; animation-direction: normal;">
<d:name class="ld ld-breath" style="transform-origin: 50px 50px 0px; animation-duration: 0.9s; animation-delay: -0.654545s; animation-direction: normal;">signal</d:name>
<d:tags class="ld ld-breath" style="transform-origin: 50px 50px 0px; animation-duration: 0.9s; animation-delay: -0.572727s; animation-direction: normal;">signal,brand wb</d:tags>
<d:license class="ld ld-breath" style="transform-origin: 50px 50px 0px; animation-duration: 0.9s; animation-delay: -0.490909s; animation-direction: normal;">cc0</d:license>
<d:slug class="ld ld-breath" style="transform-origin: 50px 50px 0px; animation-duration: 0.9s; animation-delay: -0.409091s; animation-direction: normal;">h3ynd6</d:slug>
</metadata></g></g></g></g><style type="text/css" class="ld ld-breath" style="transform-origin: 50px 50px 0px; animation-duration: 0.9s; animation-delay: -0.327273s; animation-direction: normal;">path,ellipse,circle,rect,polygon,polyline,line { stroke-width: 0; }@keyframes ld-breath {
  0% {
    -webkit-transform: scale(0.86);
    transform: scale(0.86);
  }
  50% {
    -webkit-transform: scale(1.06);
    transform: scale(1.06);
  }
  100% {
    -webkit-transform: scale(0.86);
    transform: scale(0.86);
  }
}
@-webkit-keyframes ld-breath {
  0% {
    -webkit-transform: scale(0.86);
    transform: scale(0.86);
  }
  50% {
    -webkit-transform: scale(1.06);
    transform: scale(1.06);
  }
  100% {
    -webkit-transform: scale(0.86);
    transform: scale(0.86);
  }
}
.ld.ld-breath {
  -webkit-animation: ld-breath 1s infinite;
  animation: ld-breath 1s infinite;
}
</style></svg>